<?xml version="1.0" standalone="no"?>
<!DOCTYPE svg PUBLIC "-//W3C//DTD SVG 20010904//EN"
 "http://www.w3.org/TR/2001/REC-SVG-20010904/DTD/svg10.dtd">
<svg version="1.0" xmlns="http://www.w3.org/2000/svg"
 width="170.000000pt" height="70.000000pt" viewBox="0 0 170.000000 70.000000"
 preserveAspectRatio="xMidYMid meet">
<metadata>
Created by potrace 1.16, written by Peter Selinger 2001-2019
</metadata>
<g transform="translate(0.000000,70.000000) scale(0.100000,-0.100000)"
fill="#000000" stroke="none">
<path d="M213 631 c-28 -9 -68 -30 -88 -45 -96 -74 -147 -213 -110 -300 7 -15
5 -17 -6 -11 -11 7 -12 6 -2 -6 10 -12 10 -18 1 -27 -14 -14 45 -106 90 -139
142 -105 333 -93 407 24 18 30 46 49 29 21 -5 -8 0 -7 11 2 22 18 65 108 64
135 0 11 -6 2 -13 -20 -13 -42 -44 -105 -51 -105 -2 0 8 25 22 57 45 97 31
227 -33 310 -58 76 -147 115 -183 81 -11 -11 -12 -10 -6 2 5 8 4 12 0 7 -5 -4
-10 -15 -11 -25 -2 -9 -8 -38 -14 -63 -13 -54 -10 -171 5 -176 6 -2 10 23 10
61 0 115 54 154 133 96 92 -66 127 -173 82 -247 -24 -40 -58 -60 -66 -39 -3 8
-13 17 -22 21 -11 4 -9 -2 7 -19 13 -14 29 -24 35 -23 6 1 10 -10 9 -28 -8
-104 -179 -167 -317 -115 -64 24 -132 81 -168 138 -20 33 -20 36 -4 47 9 7 12
15 7 16 -6 2 13 4 42 4 55 0 138 33 187 73 38 31 17 37 -27 8 -53 -35 -117
-44 -143 -21 -43 39 -10 187 56 244 41 37 71 46 126 37 32 -5 43 -3 54 11 7
10 14 21 14 26 0 13 -74 7 -127 -12z"/>
<path d="M669 611 c-13 -10 -28 -18 -34 -17 -5 0 -11 -19 -13 -43 -3 -36 1
-48 23 -71 18 -19 23 -30 15 -35 -6 -4 -20 -21 -31 -39 -18 -30 -19 -30 -19
-7 0 13 -2 22 -5 19 -9 -9 7 -108 16 -102 5 3 9 23 9 44 0 26 7 47 23 65 19
22 30 26 87 27 40 1 55 4 40 7 -22 6 -25 13 -28 58 -2 42 -7 53 -24 58 -11 4
-24 3 -30 -3 -17 -17 -4 -46 22 -53 l25 -7 -27 -1 c-30 -1 -44 25 -33 60 6 17
13 20 36 15 24 -4 29 -2 29 13 0 34 -45 41 -81 12z"/>
<path d="M665 426 c-12 -8 -21 -32 -25 -67 -7 -47 -5 -57 13 -76 21 -24 37
-30 37 -14 0 5 -10 11 -22 14 -12 4 -19 9 -16 12 3 4 15 2 26 -4 28 -15 48
-14 66 5 9 8 16 11 16 5 0 -16 46 -24 69 -11 12 6 21 18 22 28 1 10 4 7 8 -8
4 -14 15 -26 24 -28 14 -3 17 4 17 37 0 54 18 62 22 9 2 -35 7 -43 23 -43 16
0 20 6 18 30 -4 51 10 64 16 15 5 -36 10 -45 26 -45 16 0 21 8 23 43 5 62 -6
69 -93 69 -70 1 -75 -1 -76 -21 0 -14 -2 -16 -6 -6 -8 21 -24 30 -53 30 -32 0
-50 -17 -50 -46 0 -25 -35 -43 -51 -27 -6 6 -1 9 13 9 18 -1 23 4 23 24 0 33
-32 39 -44 8 -6 -13 -10 -16 -10 -8 -1 30 16 43 46 37 28 -5 30 -4 25 19 -3
19 -10 24 -36 24 -18 0 -41 -6 -51 -14z"/>
<path d="M1039 416 c-2 -2 -2 -34 -1 -71 3 -55 6 -66 20 -63 11 2 18 15 20 38
5 55 22 61 22 7 0 -40 3 -47 20 -47 17 0 20 7 20 39 0 55 18 61 22 9 2 -32 8
-44 21 -46 16 -3 18 3 15 55 l-3 58 -74 3 c-41 1 -77 5 -80 7 -9 10 144 3 157
-7 8 -7 17 -7 27 2 8 7 30 10 49 8 19 -2 32 0 30 4 -8 12 -69 9 -82 -4 -8 -8
-15 -8 -24 -1 -12 10 -150 18 -159 9z"/>
<path d="M1221 386 c-16 -19 -9 -105 10 -117 21 -13 43 -11 65 6 18 14 17 14
-8 4 -21 -9 -34 -9 -50 -1 -22 11 -22 11 4 6 32 -7 68 11 69 34 1 10 4 7 8 -8
4 -16 14 -25 26 -25 16 0 20 7 21 35 1 55 6 59 13 10 l6 -45 52 -2 c77 -2 109
45 50 76 l-22 11 23 -6 c17 -4 22 -1 22 15 0 16 -6 21 -29 21 -16 0 -34 -7
-42 -16 -11 -13 -14 -13 -21 0 -5 9 -24 14 -53 14 -39 0 -45 -2 -46 -21 0 -15
-2 -17 -6 -7 -3 8 -11 18 -17 22 -19 13 -63 9 -75 -6z"/>
<path d="M296 325 c-34 -18 -39 -19 -30 -4 4 8 0 7 -15 -1 -12 -6 -18 -16 -15
-22 5 -8 1 -9 -10 -5 -11 5 -15 3 -10 -5 5 -8 2 -9 -10 -5 -11 5 -15 3 -10 -5
5 -8 2 -9 -10 -5 -11 5 -15 3 -10 -5 5 -7 0 -9 -14 -6 -14 4 -20 2 -15 -5 4
-6 -2 -8 -15 -5 -12 4 -20 2 -16 -3 3 -5 -18 -9 -45 -9 -28 0 -51 -4 -51 -8 0
-12 53 -83 81 -109 36 -32 113 -64 173 -70 63 -7 154 17 191 50 24 20 53 89
36 84 -4 -1 -20 12 -35 30 -15 18 -53 50 -86 71 -32 22 -56 43 -53 46 10 10 0
7 -31 -9z"/>
<path d="M742 283 c-6 -3 -10 -9 -6 -14 3 -5 -7 -10 -23 -10 -15 -1 -36 -2
-46 -3 -28 -2 -47 -35 -47 -80 0 -55 39 -97 89 -94 l36 1 -35 4 c-50 6 -80 38
-80 85 0 43 14 78 32 78 6 0 4 -8 -5 -18 -21 -23 -22 -81 -1 -110 16 -24 71
-31 91 -11 8 8 13 8 17 0 12 -19 65 -13 78 8 12 20 12 20 26 0 16 -23 64 -25
82 -5 13 17 11 94 -3 114 -13 17 -49 15 -73 -4 -18 -15 -18 -15 3 -5 27 14 60
14 68 1 4 -6 -5 -7 -23 -4 -22 4 -35 1 -49 -13 -19 -19 -20 -19 -32 -2 -24 39
-91 10 -91 -39 0 -18 -6 -22 -29 -22 -33 0 -47 25 -36 61 6 17 12 20 37 15 26
-5 29 -3 28 17 -4 43 -1 48 19 37 27 -14 44 -13 67 5 18 14 17 14 -8 4 -20 -9
-35 -9 -50 -2 -13 5 -29 8 -36 6z"/>
<path d="M1430 271 c0 -6 -7 -8 -16 -4 -16 6 -64 -32 -64 -51 0 -6 7 -1 15 11
15 21 55 38 55 22 0 -5 -6 -9 -14 -9 -30 0 -46 -29 -40 -73 9 -58 17 -65 74
-65 l50 -1 0 46 c0 55 10 52 14 -5 2 -22 7 -45 10 -51 10 -16 41 -14 56 4 12
14 15 14 30 0 20 -18 76 -20 86 -3 12 20 8 116 -6 133 -13 16 -55 21 -64 7 -3
-5 7 -7 23 -4 18 2 32 -2 41 -15 12 -15 12 -16 0 -5 -20 17 -50 15 -72 -5 -18
-16 -18 -16 -12 0 4 13 1 17 -15 17 -15 0 -23 -9 -29 -32 l-9 -33 -7 33 c-8
33 -38 45 -50 20 -3 -7 -4 -2 -1 12 2 14 1 30 -3 36 -10 16 -52 28 -52 15z"/>
<path d="M984 233 c3 -3 20 -6 37 -5 17 0 28 -2 25 -6 -4 -3 -21 -6 -39 -7
l-32 0 -3 -77 c-3 -73 -1 -78 18 -78 13 0 20 7 20 20 0 14 6 20 23 19 16 -1
18 -2 5 -6 -10 -2 -18 -11 -18 -19 0 -13 3 -12 18 2 9 10 17 20 18 23 3 20 17
40 25 35 14 -8 11 -26 -3 -18 -7 4 -4 -2 6 -14 14 -16 29 -22 55 -20 l36 1
-35 4 c-52 6 -58 20 -8 19 34 -1 43 3 46 18 3 16 0 18 -21 12 -14 -3 -29 -2
-32 4 -4 6 6 10 24 10 26 0 31 4 31 23 0 45 -46 62 -82 30 -15 -13 -21 -14
-31 -4 -6 6 -12 17 -12 24 0 7 -16 13 -39 14 -21 1 -36 0 -32 -4z"/>
<path d="M1196 212 c-2 -4 -6 -34 -7 -67 -2 -50 0 -60 15 -63 9 -2 23 2 31 8
10 9 19 9 28 2 12 -10 104 -15 94 -5 -3 3 -23 5 -44 5 -48 0 -63 12 -64 52 -2
28 -2 27 -8 -9 -5 -34 -10 -40 -31 -42 -22 -1 -22 -1 -2 4 17 3 22 11 22 38 0
19 4 36 8 39 15 9 27 -9 27 -39 0 -29 2 -30 49 -32 45 -2 48 -1 42 20 -3 12
-6 37 -6 54 0 26 -5 34 -24 39 -13 3 -34 1 -45 -6 -12 -6 -21 -7 -21 -2 0 11
-58 14 -64 4z"/>
</g>
</svg>
